<svg width="22" height="22" viewBox="0 0 22 22" fill="none" xmlns="http://www.w3.org/2000/svg">
<path fill-rule="evenodd" clip-rule="evenodd" d="M0 10.9756C0 4.91395 4.91397 0 10.9756 0C17.0372 0 21.9512 4.91395 21.9512 10.9756C21.9512 17.0372 17.0372 21.9512 10.9756 21.9512C4.91397 21.9512 0 17.0372 0 10.9756ZM8.5817 6.23286C8.81965 6.10554 9.10829 6.11947 9.33284 6.26915L15.4792 10.3667C15.6828 10.5024 15.805 10.7309 15.805 10.9756C15.805 11.2202 15.6828 11.4486 15.4792 11.5843L9.33284 15.6819C9.10829 15.8316 8.81965 15.8456 8.5817 15.7182C8.3438 15.5909 8.19524 15.343 8.19524 15.0731V6.87799C8.19524 6.60814 8.3438 6.36018 8.5817 6.23286Z" fill="#0BADDC"/>
</svg>
