<svg xmlns="http://www.w3.org/2000/svg" width="16" height="16" viewBox="0 0 16 16" fill="none">
    <path fill-rule="evenodd" clip-rule="evenodd" d="M2.31359 3.25356L7.80497 1.00012H8.19503L13.6864 3.25356L14 3.71784V6.4572C14 10.2066 11.7044 13.5832 8.19221 15.0001H7.80779C4.29553 13.5832 2 10.2066 2 6.4572V3.71784L2.31359 3.25356ZM3.01724 4.05343V6.4572C3.01724 9.72919 4.97916 12.6825 8 13.989C11.0208 12.6825 12.9828 9.72918 12.9828 6.4572V4.05343L8 2.00871L3.01724 4.05343ZM10.545 5.9797C10.7436 6.17602 10.7436 6.49431 10.545 6.69063L7.7403 9.46267L7.021 9.46266L5.45501 7.91489C5.25638 7.71857 5.25638 7.40027 5.45501 7.20396C5.65363 7.00764 5.97568 7.00764 6.1743 7.20396L7.38065 8.39627L9.8257 5.97969C10.0243 5.78338 10.3464 5.78338 10.545 5.9797Z" fill="#3C4C5F"/>
</svg>